<?xml version="1.0" standalone="no"?>
<!DOCTYPE svg PUBLIC "-//W3C//DTD SVG 20010904//EN"
 "http://www.w3.org/TR/2001/REC-SVG-20010904/DTD/svg10.dtd">
<svg version="1.0" xmlns="http://www.w3.org/2000/svg"
 width="452.000000pt" height="70.000000pt" viewBox="0 0 452.000000 70.000000"
 preserveAspectRatio="xMidYMid meet">

<g transform="translate(0.000000,70.000000) scale(0.100000,-0.100000)"
fill="#000000" stroke="none">
<path d="M2962 495 c-42 -18 -59 -36 -77 -79 -45 -107 26 -224 136 -226 94 -1
159 64 159 160 0 75 -34 125 -99 148 -44 16 -78 15 -119 -3z m134 -37 c40 -27
54 -56 54 -109 0 -121 -125 -170 -217 -86 -48 43 -38 144 18 191 40 34 99 35
145 4z"/>
<path d="M100 490 c0 -6 43 -10 110 -10 67 0 110 4 110 10 0 6 -43 10 -110 10
-67 0 -110 -4 -110 -10z"/>
<path d="M600 496 c0 -13 143 -296 149 -296 5 0 18 24 30 53 13 28 45 96 71
150 45 87 48 97 30 97 -13 0 -24 -10 -31 -27 -6 -16 -26 -59 -46 -96 -19 -38
-36 -78 -38 -89 -5 -22 -13 -34 -19 -27 -2 2 -28 57 -59 122 -36 76 -61 117
-71 117 -9 0 -16 -2 -16 -4z"/>
<path d="M1200 490 c0 -6 43 -10 110 -10 67 0 110 4 110 10 0 6 -43 10 -110
10 -67 0 -110 -4 -110 -10z"/>
<path d="M1740 491 c0 -5 33 -11 73 -13 88 -6 97 -8 120 -32 26 -28 22 -71 -9
-95 -22 -17 -41 -21 -105 -21 l-79 0 0 -66 c0 -48 3 -65 13 -62 6 3 13 25 15
51 l3 47 52 0 c50 -1 53 -2 90 -50 21 -28 45 -50 53 -50 21 0 18 8 -23 58 -35
43 -36 45 -18 58 10 8 22 14 25 14 10 0 30 48 30 70 0 33 -23 71 -51 86 -31
16 -189 20 -189 5z"/>
<path d="M2300 491 c0 -4 33 -10 73 -13 39 -3 87 -12 104 -22 37 -19 63 -62
63 -105 0 -80 -49 -121 -147 -121 -65 0 -93 -6 -93 -21 0 -17 153 -10 190 9
91 45 107 166 33 244 -14 15 -30 25 -34 22 -4 -2 -10 0 -14 6 -8 12 -175 14
-175 1z"/>
<path d="M3509 440 c-1 -36 -3 -104 -5 -152 -3 -72 -1 -88 11 -88 12 0 15 21
15 115 0 70 4 115 10 115 6 0 10 -3 10 -7 0 -5 23 -33 50 -63 l48 -55 61 65
60 65 1 -117 c0 -98 3 -118 15 -118 13 0 15 23 15 150 0 83 -3 150 -7 150 -5
0 -38 -33 -75 -72 l-68 -73 -70 75 -69 75 -2 -65z"/>
<path d="M4140 490 c0 -6 43 -10 110 -10 67 0 110 4 110 10 0 6 -43 10 -110
10 -67 0 -110 -4 -110 -10z"/>
<path d="M100 280 l0 -80 110 0 c89 0 110 3 110 14 0 12 -13 14 -69 9 -38 -3
-81 -3 -95 1 -25 6 -27 10 -24 58 l3 51 93 -2 c78 -2 92 0 92 13 0 14 -17 16
-110 16 l-110 0 0 -80z"/>
<path d="M1200 280 l0 -80 110 0 c81 0 110 3 110 13 0 9 -24 11 -95 9 l-95 -4
0 56 0 55 92 3 c62 2 93 7 96 16 3 9 -23 12 -107 12 l-111 0 0 -80z"/>
<path d="M4140 280 l0 -80 110 0 c94 0 110 2 110 16 0 13 -14 15 -92 13 l-93
-3 -3 52 -3 52 95 0 c79 0 96 3 96 15 0 12 -19 15 -110 15 l-110 0 0 -80z"/>
</g>
</svg>
